<svg width="512" height="512" viewBox="0 0 512 512" fill="none" xmlns="http://www.w3.org/2000/svg">
<g clip-path="url(#clip0)">
<rect width="512" height="512" fill="url(#paint0_radial)"/>
<path d="M143.32 434C139.907 434 137.005 432.976 134.616 430.928C132.568 428.539 131.544 425.637 131.544 422.224V87.888C131.544 84.1333 132.568 81.232 134.616 79.184C137.005 76.7946 139.907 75.6 143.32 75.6H259.544C311.085 75.6 348.291 87.2053 371.16 110.416C394.029 133.285 405.976 167.931 407 214.352C407.341 224.251 407.512 237.563 407.512 254.288C407.512 271.013 407.341 284.496 407 294.736C405.976 327.163 400.515 353.616 390.616 374.096C381.059 394.235 365.869 409.253 345.048 419.152C324.227 429.051 296.579 434 262.104 434H143.32ZM259.544 390.48C283.096 390.48 301.699 387.237 315.352 380.752C329.347 374.267 339.416 364.027 345.56 350.032C352.045 335.696 355.629 316.581 356.312 292.688C356.995 272.208 357.336 259.408 357.336 254.288C357.336 248.827 356.995 236.197 356.312 216.4C355.629 182.608 347.608 158.032 332.248 142.672C316.888 126.971 291.8 119.12 256.984 119.12H181.72V390.48H259.544Z" fill="white"/>
</g>
<rect width="512" height="512" stroke="white"/>
<defs>
<radialGradient id="paint0_radial" cx="0" cy="0" r="1" gradientUnits="userSpaceOnUse" gradientTransform="translate(256 256) rotate(90) scale(256)">
<stop/>
<stop offset="0.9999" stop-opacity="0.953125"/>
<stop offset="1" stop-opacity="0"/>
</radialGradient>
<clipPath id="clip0">
<rect width="512" height="512" fill="white"/>
</clipPath>
</defs>
</svg>
